<svg width="59" height="41" viewBox="0 0 59 41" fill="none" xmlns="http://www.w3.org/2000/svg">
    <path d="M11.2429 12.0347H0C0.633401 17.9886 3.16701 20.5856 6.96742 21.3773H9.50102V32.3035C10.7678 38.5108 16.1517 40.1682 18.6853 40.221C18.8965 35.7344 19.1921 25.4311 18.6853 20.1105C18.1786 14.79 14.5682 12.5097 11.2429 12.0347Z" fill="#E98EAD"/>
    <path d="M0 12.0347H11.243C13.7072 12.4289 16.1067 13.875 17.4185 15.8351C18.2142 17.024 18.3686 17.5769 18.6855 20.1105L18.9843 29.8276C18.9998 30.0377 19.0054 30.2308 19.002 30.4033L18.9843 29.8276C18.7586 26.758 16.4367 20.063 9.50102 21.219C6.49236 21.7204 4.97883 21.0639 3.64206 20.1105C0.358603 17.7688 0 12.8224 0 12.0347Z" fill="#F0ECE5"/>
    <circle cx="14.0932" cy="4.75051" r="4.75051" fill="#E98EAD"/>
    <path d="M33.4318 27.1433L23 9.26436C26.4773 8.6617 34.1273 8.70188 36.9091 13.6839C39.6909 18.6658 35.75 24.7326 33.4318 27.1433Z" fill="#E98EAD"/>
    <path d="M41 40L59 9.26436C49.1818 8.3001 43.4545 14.4874 41.8182 17.7016L35.0682 29.5539L41 40Z" fill="#E98EAD"/>
    </svg>
    